<svg xmlns="http://www.w3.org/2000/svg" viewBox="0 0 500 500" version="1.1" id="svg_null"><g id="root" stroke="none" stroke-width="1" fill="none" fill-rule="evenodd"><rect id="background.primary" fill="#eeeeee" x="0" y="0" width="500" height="500"></rect><path d="M328.322 377.953c-22.797 13.984 -49.618 22.047 -78.322 22.047c-82.843 0 -150 -67.157 -150 -150c0 -19.124 3.579 -37.412 10.103 -54.231c-29.183 -10.267 -50.103 -38.075 -50.103 -70.769c0 -41.421 33.579 -75 75 -75c34.885 0 64.208 23.818 72.593 56.079c13.447 -3.956 27.68 -6.079 42.407 -6.079c82.843 0 150 67.157 150 150c0 28.704 -8.063 55.525 -22.047 78.322c13.002 5.888 22.047 18.977 22.047 34.178c0 20.71 -16.79 37.5 -37.5 37.5c-15.201 0 -28.29 -9.045 -34.178 -22.047z" id="shape.accent" fill="#393e46"></path><g id="Group" transform="translate(133.000000, 210.000000)"><rect id="Rectangle" x="0" y="0" width="235" height="80"></rect><text id="headerText.primary" font-family="Oswald" font-size="84" font-weight="700" line-spacing="80" fill="#eeeeee" data-text-alignment="C" font-style="normal"><tspan x="78.0625" y="73.5">10</tspan></text></g><rect id="icon.primary" x="105" y="95" width="60" height="60" display="none" fill="#eeeeee"></rect><svg xmlns="http://www.w3.org/2000/svg" xmlns:xlink="http://www.w3.org/1999/xlink" viewBox="0 0 32 32" version="1.1" fill="#eeeeee" id="svg_icon.primary" x="105" y="95" width="60" height="60"><g id="surface1" fill="#eeeeee"><path style=" " d="M 9.25 4.03125 C 8.925781 4.054688 8.609375 4.105469 8.3125 4.15625 C 7.226563 4.339844 6.351563 4.675781 5.6875 5.25 C 5.433594 5.386719 5.179688 5.570313 4.96875 5.78125 C 4.199219 6.550781 3.9375 7.652344 4 8.78125 C 4.0625 9.910156 4.441406 11.15625 5.03125 12.46875 C 6.214844 15.09375 8.351563 18.039063 11.15625 20.84375 C 13.960938 23.648438 16.90625 25.753906 19.53125 26.9375 C 20.84375 27.527344 22.058594 27.90625 23.1875 27.96875 C 24.316406 28.03125 25.417969 27.769531 26.1875 27 C 26.34375 26.84375 26.476563 26.648438 26.59375 26.46875 L 26.71875 26.59375 C 27.398438 25.914063 27.714844 24.957031 27.90625 23.78125 C 28.097656 22.605469 28.105469 21.203125 27.84375 19.65625 C 27.691406 18.742188 27.449219 17.769531 27.09375 16.78125 C 27.582031 15.316406 28.648438 10.839844 24.90625 7.1875 C 22.648438 4.984375 20.117188 4.480469 18.15625 4.53125 C 16.925781 4.5625 15.960938 4.816406 15.375 5 C 14.378906 4.644531 13.394531 4.371094 12.46875 4.21875 C 11.300781 4.027344 10.222656 3.960938 9.25 4.03125 Z M 12.65625 6.3125 C 15.265625 6.835938 18.328125 8.1875 21.09375 11 C 23.890625 13.839844 25.257813 16.945313 25.78125 19.5625 C 24.554688 17.128906 22.605469 14.480469 20.0625 11.9375 C 17.605469 9.480469 15.019531 7.546875 12.65625 6.3125 Z M 18.5625 6.46875 C 20.015625 6.5 21.804688 6.96875 23.5 8.625 C 25.296875 10.378906 25.726563 12.28125 25.6875 13.78125 C 24.875 12.363281 23.835938 10.953125 22.5 9.59375 C 21.230469 8.304688 19.902344 7.269531 18.5625 6.46875 Z M 7.34375 6.8125 C 7.496094 6.800781 7.683594 6.800781 7.875 6.8125 C 8.644531 6.855469 9.6875 7.132813 10.84375 7.65625 C 13.160156 8.699219 15.964844 10.683594 18.625 13.34375 C 21.285156 16.003906 23.300781 18.839844 24.34375 21.15625 C 24.867188 22.3125 25.144531 23.355469 25.1875 24.125 C 25.230469 24.894531 25.046875 25.328125 24.78125 25.59375 C 24.515625 25.859375 24.082031 26.011719 23.3125 25.96875 C 22.542969 25.925781 21.5 25.648438 20.34375 25.125 C 18.027344 24.082031 15.222656 22.066406 12.5625 19.40625 C 9.902344 16.746094 7.886719 13.941406 6.84375 11.625 C 6.320313 10.46875 6.074219 9.457031 6.03125 8.6875 C 5.988281 7.917969 6.140625 7.453125 6.40625 7.1875 C 6.605469 6.988281 6.882813 6.851563 7.34375 6.8125 Z M 12.5 10.6875 C 12.0625 10.742188 11.628906 10.933594 11.28125 11.28125 C 10.820313 11.742188 10.660156 12.367188 10.6875 12.9375 C 10.714844 13.507813 10.898438 14.105469 11.15625 14.6875 C 11.671875 15.855469 12.5625 17.0625 13.75 18.25 C 14.9375 19.4375 16.175781 20.359375 17.34375 20.875 C 17.925781 21.132813 18.492188 21.316406 19.0625 21.34375 C 19.632813 21.371094 20.257813 21.210938 20.71875 20.75 C 21.179688 20.289063 21.371094 19.664063 21.34375 19.09375 C 21.316406 18.523438 21.132813 17.925781 20.875 17.34375 C 20.359375 16.175781 19.4375 14.9375 18.25 13.75 C 17.0625 12.5625 15.855469 11.671875 14.6875 11.15625 C 14.105469 10.898438 13.507813 10.714844 12.9375 10.6875 C 12.792969 10.679688 12.644531 10.667969 12.5 10.6875 Z M 12.6875 12.6875 C 12.65625 12.71875 12.667969 12.679688 12.875 12.6875 C 13.082031 12.695313 13.449219 12.78125 13.875 12.96875 C 14.730469 13.347656 15.804688 14.117188 16.84375 15.15625 C 17.882813 16.195313 18.652344 17.300781 19.03125 18.15625 C 19.21875 18.582031 19.304688 18.949219 19.3125 19.15625 C 19.320313 19.363281 19.28125 19.34375 19.3125 19.3125 C 19.34375 19.28125 19.363281 19.320313 19.15625 19.3125 C 18.949219 19.304688 18.582031 19.21875 18.15625 19.03125 C 17.300781 18.652344 16.195313 17.882813 15.15625 16.84375 C 14.117188 15.804688 13.347656 14.730469 12.96875 13.875 C 12.78125 13.449219 12.695313 13.082031 12.6875 12.875 C 12.679688 12.667969 12.71875 12.65625 12.6875 12.6875 Z " fill="#eeeeee"></path></g></svg></g></svg>